<?xml version="1.0" encoding="iso-8859-1"?>
<!-- Generator: Adobe Illustrator 19.0.0, SVG Export Plug-In . SVG Version: 6.00 Build 0)  -->
<svg version="1.1" id="Capa_1" xmlns="http://www.w3.org/2000/svg" xmlns:xlink="http://www.w3.org/1999/xlink" x="0px" y="0px"
	 viewBox="0 0 426.667 426.667" style="enable-background:new 0 0 426.667 426.667;" xml:space="preserve">
<path style="fill:#64798A;" d="M230.941,295.22h-35.515c-7.045,0-12.757,5.711-12.757,12.757V413.91
	c0,7.045,5.711,12.757,12.757,12.757h35.515c7.045,0,12.757-5.711,12.757-12.757V307.977
	C243.698,300.932,237.986,295.22,230.941,295.22z"/>
<g>
	<rect x="186.359" y="330.752" style="fill:#3A556A;" width="33.199" height="9.557"/>
	<rect x="186.359" y="348.885" style="fill:#3A556A;" width="33.199" height="9.557"/>
	<rect x="186.359" y="366.208" style="fill:#3A556A;" width="33.199" height="9.557"/>
	<rect x="186.359" y="381.568" style="fill:#3A556A;" width="33.199" height="9.557"/>
</g>
<path style="fill:#3EA69B;" d="M312.486,159.35h-206.26c0,0-23.483,129.163,57.665,192.204h12.743v-41.58h73.771v41.58
	C250.404,351.555,330.976,316.888,312.486,159.35z"/>
<path style="fill:#31978C;" d="M215.913,309.975h-39.28v41.58h-12.742c-81.148-63.041-57.665-192.204-57.665-192.204h109.687
	V309.975z"/>
<g>
	<path style="fill:#3A556A;" d="M301.714,98.698c-11.168-32.002,18.233-62.594,19.491-63.879l8.637,8.429
		c-0.251,0.263-25.416,26.568-16.732,51.473L301.714,98.698z"/>
	<path style="fill:#3A556A;" d="M124.955,98.698l-11.396-3.977c8.684-24.906-16.481-51.21-16.732-51.473l8.637-8.429
		C106.721,36.104,136.122,66.696,124.955,98.698z"/>
</g>
<g>
	<path style="fill:#E56353;" d="M364.788,16.948L352.709,3.274c-3.541-4.009-9.662-4.389-13.671-0.847l-30.47,26.915
		c-4.01,3.541-4.389,9.662-0.847,13.671l12.078,13.674c3.542,4.009,9.663,4.388,13.672,0.847l30.47-26.915
		C367.95,27.078,368.329,20.957,364.788,16.948z"/>
	<path style="fill:#E56353;" d="M87.629,2.427c-4.009-3.541-10.13-3.162-13.671,0.847l-12.08,13.674
		c-3.541,4.009-3.161,10.13,0.847,13.671l30.47,26.915c4.009,3.541,10.13,3.162,13.672-0.847l12.078-13.674
		c3.542-4.009,3.163-10.13-0.846-13.671L87.629,2.427z"/>
</g>
<path style="fill:#44C4A1;" d="M335.151,86.665l-37.802,8.033C285.278,55.8,256.44,39.034,256.44,39.034h-93.89
	c-15.425,9.389-34.873,55.663-34.873,55.663l-35.395-7.865c-10.388-2.308-20.644,4.372-22.73,14.806l-0.062,0.306
	c-1.972,9.862,4.09,19.55,13.821,22.089l13.515,3.526l22.802,77.124l90.536,17.957l90.537-19.299l20.12-75.112l20.172-4.931
	c5.874-1.436,10.006-6.7,10.006-12.747V99.5C351.001,91.155,343.314,84.93,335.151,86.665z"/>
<g>
	<path style="fill:#FCD462;" d="M111.581,133.595l18.778,59.687l58.346,13.413C188.705,206.695,179.316,151.702,111.581,133.595z"/>
	<path style="fill:#FCD462;" d="M307.409,133.595l-16.766,60.358l-61.699,12.742C228.944,206.695,248.392,147.679,307.409,133.595z"
		/>
</g>
<path style="fill:#FFFFFF;" d="M176.298,48.088c0,0,4.192,73.436,12.407,80.477c0,0-26.49-27.161-42.083-27.161
	C146.622,101.404,165.233,52.615,176.298,48.088z"/>
<rect x="181.995" y="241.579" style="fill:#3A556A;" width="61.363" height="62.37"/>
<g>
</g>
<g>
</g>
<g>
</g>
<g>
</g>
<g>
</g>
<g>
</g>
<g>
</g>
<g>
</g>
<g>
</g>
<g>
</g>
<g>
</g>
<g>
</g>
<g>
</g>
<g>
</g>
<g>
</g>
</svg>
